<svg width="38" height="38" viewBox="0 0 38 38" fill="none" xmlns="http://www.w3.org/2000/svg">
<path d="M28.5001 12.6667C28.5001 14.4156 27.0823 15.8333 25.3334 15.8333C23.5845 15.8333 22.1667 14.4156 22.1667 12.6667C22.1667 10.9178 23.5845 9.5 25.3334 9.5C27.0823 9.5 28.5001 10.9178 28.5001 12.6667Z" fill="url(#paint0_linear_64_308)"/>
<path fill-rule="evenodd" clip-rule="evenodd" d="M18.9092 1.97916H19.0909C22.7459 1.97914 25.6102 1.97913 27.8451 2.2796C30.1326 2.58714 31.9376 3.22893 33.3544 4.64571C34.7711 6.0625 35.4129 7.86753 35.7205 10.155C36.021 12.3899 36.0209 15.2542 36.0209 18.9092V19.0489C36.0209 22.0712 36.0209 24.5453 35.8568 26.5597C35.6918 28.584 35.3538 30.2756 34.5973 31.6805C34.2636 32.3002 33.8536 32.8551 33.3544 33.3543C31.9376 34.7711 30.1326 35.4129 27.8451 35.7204C25.6102 36.0209 22.7459 36.0209 19.0909 36.0208H18.9092C15.2543 36.0209 12.39 36.0209 10.1551 35.7204C7.86762 35.4129 6.06258 34.7711 4.6458 33.3543C3.38977 32.0983 2.74115 30.5349 2.39622 28.5957C2.05739 26.6907 1.9954 24.3205 1.98252 21.3773C1.97925 20.6287 1.97925 19.8369 1.97925 19.0016V18.9091C1.97923 15.2542 1.97921 12.3899 2.27968 10.155C2.58723 7.86753 3.22902 6.0625 4.6458 4.64571C6.06258 3.22893 7.86762 2.58714 10.1551 2.2796C12.39 1.97913 15.2543 1.97914 18.9092 1.97916ZM10.4716 4.63342C8.44744 4.90556 7.22713 5.42314 6.32518 6.32509C5.42322 7.22705 4.90564 8.44736 4.6335 10.4715C4.35677 12.5298 4.35425 15.2345 4.35425 19C4.35425 19.46 4.35425 19.9048 4.35479 20.3355L5.93992 18.9486C7.38277 17.6861 9.55735 17.7585 10.913 19.1142L17.7051 25.9062C18.7932 26.9943 20.506 27.1427 21.7651 26.2579L22.2372 25.9261C24.0489 24.6528 26.5001 24.8003 28.146 26.2817L32.6275 30.315C33.0787 29.3677 33.3465 28.1229 33.4896 26.3668C33.645 24.4597 33.6459 22.081 33.6459 19C33.6459 15.2345 33.6434 12.5298 33.3667 10.4715C33.0945 8.44736 32.5769 7.22705 31.675 6.32509C30.773 5.42314 29.5527 4.90556 27.5286 4.63342C25.4703 4.35669 22.7656 4.35417 19.0001 4.35417C15.2346 4.35417 12.5299 4.35669 10.4716 4.63342Z" fill="url(#paint1_linear_64_308)"/>
<defs>
<linearGradient id="paint0_linear_64_308" x1="1.97925" y1="15.7798" x2="36.0231" y2="17.1033" gradientUnits="userSpaceOnUse">
<stop stop-color="#E3E3E3"/>
<stop offset="0.225467" stop-color="#858585"/>
<stop offset="0.480967" stop-color="#F8F8F8"/>
<stop offset="0.655023" stop-color="#D2D2D2"/>
<stop offset="1" stop-color="#F7F7F7"/>
</linearGradient>
<linearGradient id="paint1_linear_64_308" x1="1.97925" y1="15.7798" x2="36.0231" y2="17.1033" gradientUnits="userSpaceOnUse">
<stop stop-color="#E3E3E3"/>
<stop offset="0.225467" stop-color="#858585"/>
<stop offset="0.480967" stop-color="#F8F8F8"/>
<stop offset="0.655023" stop-color="#D2D2D2"/>
<stop offset="1" stop-color="#F7F7F7"/>
</linearGradient>
</defs>
</svg>
