<svg width="40" height="40" viewBox="0 0 40 40" fill="none" xmlns="http://www.w3.org/2000/svg">
<g clip-path="url(#clip0_69_2579)">
<path d="M20 40C31.0457 40 40 31.0457 40 20C40 8.95431 31.0457 0 20 0C8.95431 0 0 8.95431 0 20C0 31.0457 8.95431 40 20 40Z" fill="url(#paint0_linear_69_2579)"/>
<path d="M13.5382 21.4619L15.911 28.0296C15.911 28.0296 16.2077 28.6441 16.5254 28.6441C16.843 28.6441 21.5679 23.7288 21.5679 23.7288L26.822 13.5804L13.6229 19.7666L13.5382 21.4619Z" fill="#C8DAEA"/>
<path d="M16.6843 23.1464L16.2288 27.9874C16.2288 27.9874 16.0381 29.4707 17.5211 27.9874C19.0041 26.504 20.4236 25.3602 20.4236 25.3602" fill="#A9C6D8"/>
<path d="M13.581 21.6964L8.69998 20.106C8.69998 20.106 8.11664 19.8694 8.30448 19.3327C8.34314 19.222 8.42114 19.1279 8.65448 18.966C9.73598 18.2122 28.6721 11.406 28.6721 11.406C28.6721 11.406 29.2068 11.2259 29.5221 11.3457C29.6002 11.3698 29.6703 11.4143 29.7255 11.4745C29.7807 11.5346 29.819 11.6084 29.8363 11.6882C29.8704 11.8291 29.8846 11.9741 29.8786 12.119C29.8771 12.2444 29.862 12.3605 29.8505 12.5427C29.7351 14.4035 26.2838 28.2915 26.2838 28.2915C26.2838 28.2915 26.0773 29.1042 25.3375 29.132C25.1557 29.1379 24.9745 29.1071 24.8049 29.0415C24.6352 28.9758 24.4805 28.8767 24.35 28.75C22.8981 27.5012 17.8801 24.1289 16.7713 23.3872C16.7463 23.3701 16.7252 23.3479 16.7095 23.3221C16.6938 23.2962 16.6839 23.2672 16.6803 23.2372C16.6648 23.159 16.7498 23.0622 16.7498 23.0622C16.7498 23.0622 25.4875 15.2955 25.72 14.4802C25.738 14.417 25.67 14.3859 25.5786 14.4135C24.9983 14.627 14.938 20.9802 13.8276 21.6814C13.7477 21.7055 13.6632 21.7107 13.581 21.6964Z" fill="white"/>
</g>
<defs>
<linearGradient id="paint0_linear_69_2579" x1="20" y1="40" x2="20" y2="0" gradientUnits="userSpaceOnUse">
<stop stop-color="#1D93D2"/>
<stop offset="1" stop-color="#38B0E3"/>
</linearGradient>
<clipPath id="clip0_69_2579">
<rect width="40" height="40" fill="white"/>
</clipPath>
</defs>
</svg>
