<svg width="40" height="40" viewBox="0 0 40 40" fill="none" xmlns="http://www.w3.org/2000/svg">
<g clip-path="url(#clip0_69_2575)">
<path d="M20 40C31.0457 40 40 31.0457 40 20C40 8.95431 31.0457 0 20 0C8.95431 0 0 8.95431 0 20C0 31.0457 8.95431 40 20 40Z" fill="white" fill-opacity="0.05"/>
<path d="M23.9134 23.8819C26.315 22.5197 27.9292 19.937 27.9292 16.9842C27.9292 12.5984 24.378 9.04724 19.9922 9.04724C15.6063 9.04724 12.063 12.5984 12.063 16.9764C12.063 19.937 13.6851 22.5118 16.0788 23.874C11.1024 25.1417 7.06304 28.7402 5.1969 33.4488C8.85832 37.4724 14.1339 40 20 40C25.8662 40 31.1418 37.4724 34.8032 33.4488C32.9371 28.7402 28.8977 25.1417 23.9134 23.8819Z" fill="white" fill-opacity="0.8"/>
<path d="M31.6221 14.3543H30.378C29.2047 9.71652 25 6.2677 20 6.2677C15 6.2677 10.7953 9.70865 9.62207 14.3543H8.37798C7.95278 14.3543 7.60632 14.7008 7.60632 15.126V18.8976C7.60632 19.3228 7.95278 19.6693 8.37798 19.6693H9.95278C10.4331 19.6693 10.8032 19.2362 10.7166 18.7716C10.5591 17.9527 10.504 17.0945 10.5748 16.2126C10.9528 11.5433 14.7953 7.79526 19.4803 7.54329C24.9292 7.24408 29.4646 11.5984 29.4646 16.9842C29.4646 17.5984 29.4016 18.189 29.2914 18.7716C29.1969 19.2441 29.5748 19.6771 30.0473 19.6771H30.189C29.8583 20.7008 29.0158 22.6063 27.1733 23.6299C25.6299 24.4882 23.6851 24.5669 21.3937 23.8504C21.2756 23.3228 20.6929 22.7008 20.0945 22.4094C19.3229 22.0236 18.8425 22.3464 18.567 22.8976C18.2914 23.4488 18.3307 24.0236 19.0945 24.4094C19.7717 24.748 20.7953 24.8189 21.2205 24.4488C22.315 24.7874 23.3386 24.9606 24.2914 24.9606C25.4725 24.9606 26.5355 24.7008 27.4725 24.1732C29.6378 22.9685 30.5276 20.7323 30.8425 19.6693H31.6221C32.0473 19.6693 32.3937 19.3228 32.3937 18.8976V15.126C32.3937 14.7008 32.0473 14.3543 31.6221 14.3543Z" fill="white"/>
</g>
<defs>
<clipPath id="clip0_69_2575">
<rect width="40" height="40" fill="white"/>
</clipPath>
</defs>
</svg>
